<svg id="logotype-dark" xmlns="http://www.w3.org/2000/svg" width="62.939" height="75.726" viewBox="0 0 62.939 75.726">
  <path id="Path_1" data-name="Path 1" d="M8.867,665.5H7.142l-.858-2.424H2.543L1.726,665.5H0L3.561,656H5.336Zm-3-3.71L4.548,658a5.011,5.011,0,0,1-.13-.6h-.03a4,4,0,0,1-.13.6l-1.307,3.79Zm8.079-1.616a1.246,1.246,0,0,0-.8-.219,1.363,1.363,0,0,0-1.137.618,2.718,2.718,0,0,0-.459,1.676V665.5H10.014v-6.793H11.55v1.4h.03a2.375,2.375,0,0,1,.688-1.117,1.547,1.547,0,0,1,1.047-.4,1.245,1.245,0,0,1,.638.13l-.01,1.456Zm6.723,2.344H16.039a1.988,1.988,0,0,0,.579,1.456,2.171,2.171,0,0,0,1.526.509,3.38,3.38,0,0,0,1.995-.648v1.237a4.56,4.56,0,0,1-2.454.578,3.043,3.043,0,0,1-2.354-.928,3.7,3.7,0,0,1-.848-2.6,3.611,3.611,0,0,1,.938-2.583,3.071,3.071,0,0,1,2.334-1,2.673,2.673,0,0,1,2.154.9,3.715,3.715,0,0,1,.758,2.484v.6Zm-1.486-1.087a2,2,0,0,0-.389-1.287,1.3,1.3,0,0,0-1.057-.459,1.489,1.489,0,0,0-1.127.489,2.193,2.193,0,0,0-.569,1.267h3.142Zm9,4.07H26.642v-3.83c0-1.267-.449-1.905-1.347-1.905a1.463,1.463,0,0,0-1.157.529,1.935,1.935,0,0,0-.459,1.327v3.87H22.133V658.7h1.546v1.127h.03a2.426,2.426,0,0,1,2.2-1.287,2.062,2.062,0,0,1,1.7.718,3.233,3.233,0,0,1,.579,2.075l-.01,4.169Zm7.082,0h-1.5v-1.057h-.03a2.238,2.238,0,0,1-2.065,1.217,2.141,2.141,0,0,1-1.566-.549,1.885,1.885,0,0,1-.569-1.436c0-1.287.738-2.025,2.214-2.244l2.015-.289c0-.968-.459-1.456-1.376-1.456a3.261,3.261,0,0,0-2.184.838V659.18a4.748,4.748,0,0,1,2.484-.638,2.258,2.258,0,0,1,2.573,2.534Zm-1.486-3.341-1.426.2a2.387,2.387,0,0,0-1,.319.952.952,0,0,0-.339.828.9.9,0,0,0,.309.708,1.221,1.221,0,0,0,.828.279,1.538,1.538,0,0,0,1.167-.5,1.751,1.751,0,0,0,.459-1.247v-.589Zm4.907,3.341H37.135V655.45h1.546Zm1.586-.209v-1.426a3.069,3.069,0,0,0,1.905.658c.928,0,1.4-.269,1.4-.818a.654.654,0,0,0-.12-.4,1.291,1.291,0,0,0-.319-.289,3.068,3.068,0,0,0-.479-.229c-.18-.07-.389-.14-.608-.229a6.58,6.58,0,0,1-.748-.349,2.212,2.212,0,0,1-.559-.419,1.7,1.7,0,0,1-.339-.539,1.867,1.867,0,0,1-.11-.7,1.656,1.656,0,0,1,.229-.868,2.062,2.062,0,0,1,.618-.628,3.116,3.116,0,0,1,.888-.389,3.918,3.918,0,0,1,1.027-.13,4.7,4.7,0,0,1,1.686.289v1.347a2.831,2.831,0,0,0-1.646-.489,2.14,2.14,0,0,0-.529.06,1.336,1.336,0,0,0-.4.17.8.8,0,0,0-.259.259.627.627,0,0,0-.09.329.7.7,0,0,0,.09.369.806.806,0,0,0,.279.269,2,2,0,0,0,.439.209c.17.06.369.13.588.209a7.319,7.319,0,0,1,.788.369,2.393,2.393,0,0,1,.588.419,1.744,1.744,0,0,1,.379.549,1.826,1.826,0,0,1,.13.728,1.63,1.63,0,0,1-.239.9,1.952,1.952,0,0,1-.638.638,3.172,3.172,0,0,1-.918.379,4.865,4.865,0,0,1-1.1.12A4.748,4.748,0,0,1,40.267,665.294Zm9.286.369a3.245,3.245,0,0,1-3.451-3.471,3.346,3.346,0,0,1,3.611-3.631,3.264,3.264,0,0,1,2.484.938,3.619,3.619,0,0,1,.888,2.593,3.549,3.549,0,0,1-.958,2.6A3.484,3.484,0,0,1,49.553,665.663Zm.07-5.885a1.763,1.763,0,0,0-1.426.628,2.633,2.633,0,0,0-.529,1.735,2.527,2.527,0,0,0,.529,1.686,1.771,1.771,0,0,0,1.416.608,1.7,1.7,0,0,0,1.4-.6,2.643,2.643,0,0,0,.489-1.716,2.7,2.7,0,0,0-.489-1.736A1.633,1.633,0,0,0,49.623,659.779Zm8.648-3.072a1.411,1.411,0,0,0-.708-.18c-.748,0-1.117.419-1.117,1.267v.918h1.576v1.207H56.446V665.5H54.909v-5.586H53.752v-1.207h1.157v-1.1a2.147,2.147,0,0,1,.7-1.7,2.584,2.584,0,0,1,1.756-.618,2.443,2.443,0,0,1,.9.13v1.277Zm4.668,8.728a2.673,2.673,0,0,1-1.187.229c-1.317,0-1.975-.628-1.975-1.9v-3.84H58.64v-1.207h1.137v-1.576l1.536-.439v2h1.626v1.207H61.313v3.391a1.3,1.3,0,0,0,.219.858.922.922,0,0,0,.728.259,1.071,1.071,0,0,0,.678-.229Z" transform="translate(0 -589.937)" fill="#fff"/>
  <path id="Path_2" data-name="Path 2" d="M163.934,265.268V254.256H146.1l17.834-16.528V225.5c1.207-.01,2.364-.05,3.451-.1l27.081,39.868Z" transform="translate(-131.527 -202.918)" fill="#009245"/>
  <path id="Path_3" data-name="Path 3" d="M29.684,233.372,7.471,253.959H29.684v8.488L0,262.567V245.341L23.849,222.4c1.636.2,3.631.339,5.835.389Z" transform="translate(0 -200.217)" fill="#006837"/>
  <path id="Path_4" data-name="Path 4" d="M263.9,3.73h1.865V14.543H263.9ZM269.865,8.8V6.234h-1.855V19.61h1.855Zm4.329-5.067V0h-1.865V14.533h1.865Z" transform="translate(-237.577)" fill="#b3b3b3"/>
</svg>
